<?xml version="1.0" standalone="no"?>
<!DOCTYPE svg PUBLIC "-//W3C//DTD SVG 20010904//EN"
 "http://www.w3.org/TR/2001/REC-SVG-20010904/DTD/svg10.dtd">
<svg version="1.0" xmlns="http://www.w3.org/2000/svg"
 width="920.000000pt" height="920.000000pt" viewBox="0 0 920.000000 920.000000"
 preserveAspectRatio="xMidYMid meet">
<metadata>
Created by potrace 1.11, written by Peter Selinger 2001-2013
</metadata>
<g transform="translate(0.000000,920.000000) scale(0.100000,-0.100000)"
fill="#000000" stroke="none">
<path d="M4440 9117 c0 -48 3 -87 8 -87 8 0 5 160 -3 168 -3 3 -5 -34 -5 -81z"/>
<path d="M5490 9150 c0 -5 5 -10 10 -10 6 0 10 5 10 10 0 6 -4 10 -10 10 -5 0
-10 -4 -10 -10z"/>
<path d="M1141 9110 c-1 -18 16 -46 23 -40 2 3 -2 16 -9 30 -8 15 -14 19 -14
10z"/>
<path d="M3466 9053 c3 -27 7 -53 9 -59 2 -7 -78 -60 -178 -120 -100 -60 -282
-168 -404 -241 -123 -73 -227 -133 -233 -133 -5 0 -10 6 -10 13 1 25 -74 359
-78 348 -3 -9 43 -238 68 -339 8 -30 6 -34 -28 -56 -20 -12 -47 -28 -60 -35
-33 -18 -62 -70 -62 -114 0 -35 10 -62 36 -97 6 -8 23 -35 36 -60 14 -25 54
-92 88 -150 35 -58 68 -114 74 -125 6 -11 131 -220 277 -465 146 -245 277
-465 292 -490 25 -45 25 -45 10 -108 -15 -59 -15 -70 4 -170 11 -59 16 -111
12 -116 -5 -5 -19 -2 -34 8 -15 10 -30 14 -33 10 -4 -4 -2 -8 3 -10 30 -11 75
-46 70 -53 -3 -5 -19 -7 -35 -5 -22 4 -29 2 -25 -9 4 -9 -3 -14 -27 -14 -57
-1 -68 -3 -68 -11 0 -5 26 -6 59 -4 36 3 61 0 65 -7 4 -6 3 -11 -3 -11 -19 0
-41 -32 -41 -59 0 -29 -21 -56 -33 -44 -11 10 -97 11 -97 1 0 -4 12 -7 28 -6
15 1 37 -2 49 -6 18 -6 20 -12 16 -47 -4 -29 -1 -45 11 -58 11 -12 14 -21 7
-26 -13 -7 -81 23 -81 36 0 5 -4 9 -10 9 -22 0 5 -30 41 -47 49 -23 51 -42 4
-37 -19 1 -40 6 -45 9 -6 3 -10 2 -10 -3 0 -13 25 -22 61 -22 21 0 29 -5 29
-17 0 -15 -11 -18 -70 -20 -70 -2 -110 -15 -110 -35 0 -7 5 -6 15 2 9 7 48 15
88 18 l72 4 13 -36 c7 -20 39 -71 71 -114 90 -122 116 -162 165 -256 49 -94
54 -113 31 -122 -25 -10 -17 -25 45 -85 61 -59 79 -90 39 -69 -11 7 -28 9 -37
5 -12 -4 -6 -15 30 -53 25 -26 58 -72 74 -102 16 -30 51 -77 79 -105 27 -27
50 -55 51 -60 1 -6 12 -33 24 -60 21 -45 22 -65 24 -247 1 -219 -2 -232 -63
-230 -23 0 -31 -4 -31 -16 0 -27 55 -114 99 -157 55 -53 55 -74 -1 -68 -80 7
-126 -44 -75 -84 36 -28 59 -80 60 -135 0 -41 -4 -54 -26 -74 -29 -27 -27 -39
20 -117 16 -26 23 -49 21 -76 l-3 -39 -37 21 c-21 11 -41 18 -44 14 -3 -3 4
-28 17 -54 24 -47 24 -53 24 -343 0 -257 -4 -347 -19 -460 -8 -56 -16 -162
-21 -275 -5 -113 -11 -197 -20 -290 -2 -22 -7 -71 -10 -110 -3 -38 -7 -86 -10
-105 -2 -19 -7 -68 -11 -109 -5 -66 -9 -78 -36 -103 -17 -16 -39 -33 -48 -38
-15 -8 -13 -16 19 -81 l35 -72 -2 -150 c-1 -83 -4 -153 -7 -155 -2 -2 -16 4
-32 14 -15 11 -45 28 -65 38 -20 10 -45 26 -56 36 -39 37 -59 41 -125 30 -73
-13 -109 -36 -196 -124 l-64 -64 -37 24 c-97 64 -191 74 -315 32 -51 -17 -71
-28 -74 -43 -4 -24 -19 -35 -46 -35 -11 0 -32 -10 -47 -23 -22 -19 -27 -32
-31 -88 -5 -71 -25 -119 -83 -199 -24 -33 -41 -48 -55 -47 -19 1 -20 6 -15 55
3 29 15 90 27 135 36 144 37 163 1 105 -34 -56 -83 -234 -74 -270 6 -22 -10
-1 -42 57 -35 62 -88 115 -116 115 -7 0 -2 -13 14 -32 32 -39 86 -146 86 -170
0 -10 -8 -22 -18 -27 -10 -5 -24 -21 -32 -36 -13 -24 -18 -26 -57 -20 -56 8
-78 -5 -33 -20 19 -6 35 -16 37 -21 6 -21 -33 -52 -72 -57 -22 -3 -59 -9 -82
-13 -38 -6 -43 -4 -44 12 -3 79 -30 107 -116 124 -32 6 -70 20 -84 30 -48 34
-84 32 -137 -6 -26 -19 -63 -41 -82 -50 -19 -9 -42 -20 -50 -24 -8 -3 -29 -29
-47 -56 -17 -27 -43 -60 -57 -74 -36 -37 -50 -100 -37 -174 6 -34 13 -79 17
-101 11 -77 44 -102 121 -92 52 8 71 16 120 50 23 16 61 33 84 37 l43 8 78
-76 c53 -51 75 -79 68 -86 -6 -6 -81 -13 -168 -16 -155 -7 -198 -16 -283 -60
-9 -5 -76 -23 -148 -40 -72 -18 -131 -36 -131 -41 0 -9 16 -13 35 -9 6 1 43 4
83 6 40 2 85 6 100 9 160 29 326 25 492 -13 74 -17 151 -34 170 -36 70 -10
105 -18 121 -27 9 -4 18 -6 21 -4 2 2 67 6 143 9 77 2 163 9 190 16 78 18 182
20 237 3 27 -8 80 -29 117 -48 113 -57 97 -56 576 -40 171 5 216 8 381 20 177
13 286 16 684 21 651 8 834 8 975 0 72 -4 164 -9 205 -12 41 -2 107 -6 145 -9
358 -25 927 -25 1075 0 14 2 50 6 80 9 77 8 403 86 416 100 6 6 26 46 44 88
18 43 37 78 41 78 5 0 9 6 9 13 0 6 -35 29 -78 49 -42 21 -126 68 -186 105
-102 64 -110 71 -128 118 -49 131 -86 180 -144 189 -62 11 -69 18 -50 55 20
38 77 91 117 108 44 18 36 33 -13 22 -46 -11 -87 -37 -117 -74 -24 -31 -26
-31 -29 1 -2 26 -21 69 -27 62 -2 -2 -5 -23 -6 -46 -2 -23 -4 -42 -6 -42 -2 0
-27 13 -55 30 -52 29 -52 29 -49 74 1 25 0 54 -4 65 -7 24 -55 42 -78 29 -46
-25 -48 26 -6 142 47 131 47 130 12 97 -17 -16 -39 -46 -49 -68 -11 -21 -22
-39 -25 -39 -3 0 -12 12 -20 27 -25 47 -86 57 -237 39 -30 -4 -35 0 -67 50
-38 59 -99 106 -132 100 -20 -4 -115 -9 -139 -7 -6 1 -33 29 -60 64 -26 34
-81 95 -122 136 -52 53 -83 96 -108 148 -19 40 -53 91 -75 113 l-39 40 -80
-29 c-43 -16 -100 -43 -125 -61 -26 -18 -49 -30 -52 -27 -3 3 -7 21 -9 39 -1
18 -7 54 -12 79 -5 26 -10 100 -11 166 -1 66 -3 128 -5 139 -2 10 -7 64 -10
119 -4 55 -9 107 -11 115 -11 39 -33 181 -39 250 -12 121 -19 239 -20 305 l-1
70 43 14 c29 9 47 22 55 38 10 23 8 28 -18 51 -86 74 -104 120 -120 306 -4 43
-8 86 -10 95 -1 9 -6 50 -10 91 -4 41 -9 89 -11 105 -2 17 -6 57 -9 90 -3 33
-8 76 -10 95 -14 129 -23 221 -24 256 -1 11 -26 50 -56 87 -61 74 -56 51 -70
281 -3 55 -6 102 -7 105 0 3 0 10 1 16 0 5 93 -129 206 -298 113 -169 203
-311 201 -316 -6 -9 17 -41 85 -122 25 -30 50 -61 55 -70 8 -14 42 3 234 117
124 74 225 138 225 142 0 11 -56 153 -77 195 -11 22 -22 36 -25 33 -4 -3 -18
18 -33 47 -15 28 -43 81 -62 117 -20 36 -55 101 -78 145 -23 44 -57 107 -75
140 -18 33 -55 103 -82 155 -28 52 -76 143 -107 201 -30 58 -54 108 -51 110 2
3 13 45 24 94 28 127 64 229 107 297 37 61 47 117 26 154 -6 11 -4 33 4 62 8
25 14 57 14 73 0 32 12 38 63 32 21 -2 37 1 37 7 0 5 -22 10 -49 10 -58 0 -69
18 -37 63 18 24 19 32 9 70 -9 31 -9 44 0 49 6 4 14 5 18 2 4 -2 10 0 14 6 8
13 -21 13 -46 0 -14 -8 -19 -7 -19 2 0 15 56 54 71 51 5 -2 9 2 9 7 0 17 -22
11 -60 -15 -28 -19 -44 -24 -68 -19 -26 5 -30 9 -22 24 6 10 16 24 23 32 19
19 46 81 40 90 -2 5 -16 -14 -29 -41 -30 -59 -54 -84 -54 -54 0 18 -29 57 -48
64 -5 2 -12 29 -15 59 -2 30 -11 71 -20 91 -8 20 -13 47 -10 61 6 32 -20 83
-54 105 -14 10 -49 21 -77 25 -135 20 -128 17 -120 52 13 60 32 96 53 96 11 0
23 5 27 11 5 8 -1 10 -18 7 -24 -5 -25 -3 -16 24 11 31 17 33 66 19 17 -5 32
-6 32 -1 0 11 -26 20 -56 20 -13 0 -24 5 -24 11 0 7 20 9 57 6 59 -5 123 7
123 23 0 6 -10 6 -26 0 -28 -11 -87 -13 -120 -4 -20 5 -20 7 -6 39 15 32 39
41 58 22 14 -14 26 -7 14 8 -7 8 -19 15 -26 15 -19 0 -18 14 8 63 24 48 25
100 4 170 -12 39 -12 47 -1 47 8 0 17 5 21 11 5 8 -1 10 -17 7 -20 -4 -29 3
-48 33 -13 20 -41 47 -63 60 -63 39 -88 60 -88 75 0 8 -7 14 -15 14 -10 0 -15
-10 -15 -34 0 -30 -2 -33 -25 -28 -25 4 -27 8 -29 46 -1 22 -26 35 -26 13 0
-20 -33 -47 -57 -47 -11 0 -40 -7 -63 -15 l-42 -15 5 70 c4 38 16 108 27 155
36 148 17 220 -72 278 -16 10 -28 26 -28 36 0 10 -16 31 -35 45 -40 31 -44 49
-13 70 12 9 19 18 16 21 -3 3 -16 -4 -31 -15 -38 -30 -45 -25 -39 30 3 33 1
50 -7 50 -6 0 -10 -12 -10 -27 3 -51 -1 -58 -44 -81 -53 -28 -80 -22 -66 15
11 30 11 33 1 33 -4 0 -12 -10 -17 -22 -6 -13 -17 -22 -25 -20 -70 16 -109 13
-175 -13 -39 -16 -83 -36 -100 -45 l-30 -17 -123 206 c-68 113 -134 224 -147
246 -48 84 -251 421 -265 441 -29 40 -67 57 -115 51 -50 -5 -53 -1 -58 70 -1
18 -5 33 -9 33 -4 0 -5 -21 -2 -47z m9 -7507 c16 -13 59 -41 97 -62 69 -38 96
-60 85 -70 -2 -3 -38 16 -78 43 -41 26 -95 59 -121 72 -26 14 -45 29 -42 33 9
14 30 9 59 -16z m84 -91 c44 -27 82 -58 77 -63 -3 -3 -14 1 -23 10 -10 8 -62
40 -115 72 -54 31 -98 59 -98 62 0 4 120 -57 159 -81z m53 -69 c27 -16 46 -31
44 -33 -2 -3 -24 8 -48 24 -23 15 -47 30 -53 33 -34 17 -156 94 -161 101 -5 8
123 -65 218 -125z m-92 25 c36 -22 82 -50 103 -61 20 -11 37 -25 37 -31 0 -6
-12 -2 -27 9 -16 10 -81 49 -145 86 -65 38 -118 72 -118 78 0 10 36 -9 150
-81z m-36 -11 c65 -39 121 -70 125 -70 9 -1 51 -37 51 -44 0 -6 -18 3 -145 76
-120 69 -176 107 -160 107 6 1 63 -31 129 -69z m26 -53 c63 -36 124 -73 135
-81 24 -19 -108 49 -202 104 -37 22 -69 37 -72 35 -6 -7 -8 -6 124 -80 150
-84 168 -95 162 -102 -3 -3 -48 20 -99 50 -146 86 -168 97 -168 88 0 -10 128
-87 243 -147 15 -8 25 -19 21 -25 -4 -7 -12 -6 -22 3 -10 7 -33 22 -52 32 -19
10 -50 28 -67 38 -18 11 -33 16 -33 11 0 -5 41 -33 90 -62 50 -29 90 -57 90
-62 0 -11 -26 2 -83 39 -20 14 -40 22 -43 19 -3 -3 21 -22 53 -42 32 -21 61
-42 64 -47 6 -10 0 -140 -7 -148 -3 -2 -25 4 -50 13 -45 16 -47 16 -98 -8 -58
-28 -76 -31 -76 -14 0 12 -60 8 -106 -6 -18 -6 -23 2 -44 67 -23 72 -40 105
-40 79 0 -8 11 -45 25 -83 27 -74 30 -92 16 -84 -5 3 -14 27 -21 53 -8 29 -15
41 -17 30 -3 -9 1 -33 7 -53 7 -19 10 -38 7 -41 -3 -3 -14 23 -24 58 -10 34
-24 64 -30 66 -6 2 0 -25 13 -62 27 -73 29 -85 14 -85 -5 0 -10 10 -10 23 -1
12 -8 33 -16 47 l-15 25 4 -25 c3 -14 8 -38 11 -55 6 -27 3 -33 -31 -55 -21
-14 -72 -50 -113 -80 -41 -31 -102 -74 -136 -97 l-61 -41 -23 56 c-13 31 -25
51 -27 46 -2 -6 6 -33 17 -59 11 -27 17 -52 13 -56 -5 -5 -19 18 -32 51 -13
33 -28 60 -33 60 -11 0 -11 0 17 -65 14 -32 24 -62 22 -68 -1 -5 -17 23 -34
64 l-32 74 25 23 c14 13 36 41 51 63 14 21 29 39 33 39 4 0 16 -34 25 -75 10
-42 23 -79 28 -82 11 -7 8 9 -17 100 -9 32 -16 66 -15 75 1 19 10 -7 29 -80 7
-26 16 -46 20 -43 4 3 -1 35 -11 72 -11 37 -19 73 -19 80 0 17 16 17 17 1 1
-31 15 -84 24 -92 12 -13 11 -3 -5 66 l-13 57 38 35 38 36 9 -33 c6 -17 13
-49 17 -70 3 -21 10 -35 15 -32 4 3 2 33 -6 67 -8 34 -13 66 -11 72 5 12 37
-59 37 -80 0 -7 5 -16 10 -19 15 -9 12 9 -9 64 -10 28 -16 52 -13 55 10 11 22
6 22 -9 0 -22 29 -89 35 -83 3 3 -2 27 -10 53 -9 26 -14 49 -11 52 5 5 17 -21
52 -112 10 -27 20 -43 22 -33 2 9 -8 43 -22 77 -15 33 -26 66 -26 74 0 7 14
26 30 42 17 16 30 24 30 19 0 -6 7 -19 16 -30 15 -19 16 -19 8 1 -14 41 -6 60
48 103 14 11 27 8 84 -18 37 -17 72 -29 77 -27 5 1 -23 18 -62 36 -59 27 -70
36 -60 47 9 12 18 10 53 -12 70 -43 156 -85 156 -76 0 5 -12 15 -27 23 -16 8
-58 31 -95 52 l-66 38 24 90 c13 50 24 93 24 95 0 3 12 -4 28 -14 15 -11 79
-49 142 -85z m2716 49 c22 -19 49 -53 59 -76 l19 -42 100 5 c82 4 97 2 82 -8
-11 -9 -37 -12 -76 -9 -32 3 -61 1 -64 -5 -4 -5 15 -9 45 -9 28 -1 54 -4 57
-7 4 -4 -29 -5 -73 -4 -43 1 -80 -2 -82 -7 -2 -5 31 -9 72 -9 47 0 74 -3 72
-10 -4 -9 -82 -10 -169 -1 -21 3 -38 0 -38 -5 0 -5 6 -9 13 -9 64 -1 184 -14
192 -22 9 -8 -85 -4 -160 7 -11 2 -32 4 -46 4 -19 1 -34 12 -53 39 -14 21 -26
40 -26 43 0 3 25 3 56 1 33 -2 54 0 51 5 -3 5 -32 11 -64 12 -79 3 -81 11 -3
11 80 0 73 10 -10 15 -78 4 -91 15 -19 16 37 0 48 3 34 8 -11 5 -39 7 -62 6
-24 -1 -43 2 -43 8 0 5 30 7 75 4 41 -2 75 -1 75 4 0 5 -15 9 -32 10 -131 4
-193 19 -79 19 34 0 60 4 57 8 -3 4 -31 7 -63 5 -71 -3 -105 8 -48 17 94 14
110 11 151 -24z m-3147 -46 c0 -10 -3 -8 -9 5 -12 27 -12 43 0 25 5 -8 9 -22
9 -30z m-19 -15 c0 -5 -5 -3 -10 5 -5 8 -10 20 -10 25 0 6 5 3 10 -5 5 -8 10
-19 10 -25z m-130 -30 c4 3 4 -11 0 -30 -4 -19 -6 -36 -3 -38 2 -3 -2 -7 -9
-9 -10 -4 -13 8 -11 51 1 69 5 84 10 48 2 -15 8 -25 13 -22z m60 -2 c0 -45 -5
-40 -13 10 -3 22 -2 35 4 32 5 -4 9 -22 9 -42z m28 -13 c0 -9 -3 -7 -8 5 -5
11 -8 29 -8 40 0 16 2 15 8 -5 4 -14 8 -32 8 -40z m-127 -2 c5 -55 0 -88 -12
-88 -6 0 -8 3 -6 8 3 4 1 31 -2 60 -4 29 -5 54 -3 57 13 13 20 1 23 -37z m146
10 c-3 -8 -6 -5 -6 6 -1 11 2 17 5 13 3 -3 4 -12 1 -19z m-212 -69 c5 -38 3
-59 -4 -63 -7 -5 -11 7 -11 36 0 24 -5 50 -11 58 -7 11 -8 -3 -5 -47 3 -35 2
-63 -2 -63 -4 0 -9 10 -10 23 -1 12 -4 31 -6 42 -3 11 -5 30 -5 43 -1 12 -6
22 -12 22 -6 0 -8 -8 -5 -17 12 -43 18 -133 8 -133 -5 0 -9 12 -9 28 1 15 -2
50 -6 78 l-7 51 32 10 c40 11 44 7 53 -68z m32 19 c2 -31 -1 -59 -6 -62 -5 -4
-9 2 -9 11 0 10 -3 40 -7 67 -5 37 -4 47 6 44 7 -2 14 -27 16 -60z m110 20
c-3 -8 -6 -5 -6 6 -1 11 2 17 5 13 3 -3 4 -12 1 -19z m-237 -10 c0 -7 3 -44 5
-83 3 -38 3 -65 0 -60 -9 20 -31 145 -27 150 10 9 22 5 22 -7z m3859 -31 c17
-35 18 -42 5 -90 -12 -45 -26 -135 -27 -174 0 -17 -9 -16 -57 4 -36 16 -40 21
-39 53 0 19 -2 69 -6 110 -6 68 -5 78 15 103 12 15 25 25 30 22 5 -3 11 -2 14
3 13 21 47 6 65 -31z m-3883 -44 c3 -27 8 -56 10 -65 1 -9 -3 -19 -10 -21 -8
-3 -13 3 -13 16 -1 53 -4 67 -13 67 -6 0 -8 -20 -4 -54 4 -35 3 -56 -5 -60 -7
-5 -11 7 -12 36 -1 24 -3 54 -4 68 -3 24 19 60 36 60 4 0 11 -21 15 -47z
m3604 -17 c96 -9 108 -11 117 -19 3 -4 -25 -5 -63 -2 -106 9 -126 13 -138 26
-6 6 -6 10 -1 7 6 -3 44 -9 85 -12z m-3666 -86 c-3 -38 -9 -51 -45 -83 -43
-38 -154 -97 -183 -97 -14 0 -17 9 -14 47 3 43 5 48 29 50 14 1 50 9 80 17 52
15 56 19 89 81 38 72 50 68 44 -15z m3770 46 c6 -1 11 -6 11 -11 0 -6 -7 -9
-15 -8 -8 1 -35 4 -60 7 -61 8 -91 14 -99 21 -5 5 112 -1 163 -9z m-39 -32
c17 -3 37 -6 44 -8 8 -1 17 -8 19 -15 3 -9 -2 -11 -16 -7 -11 4 -29 9 -39 11
-10 2 -38 11 -63 19 -41 14 -42 15 -10 10 19 -2 49 -6 65 -10z m10 -35 c28 -6
55 -16 60 -22 7 -7 4 -8 -9 -3 -11 4 -40 11 -64 17 -25 5 -52 14 -61 20 -13 8
-13 9 4 5 11 -3 43 -10 70 -17z m263 -7 c-7 -10 -14 -19 -15 -21 -3 -4 2 28 6
47 1 2 6 0 11 -3 8 -5 7 -12 -2 -23z m-209 -38 c12 -12 -8 -10 -34 2 l-30 14
30 -6 c16 -3 32 -8 34 -10z m284 -14 c4 -15 0 -20 -14 -20 -17 0 -18 3 -9 20
6 11 12 20 14 20 2 0 6 -9 9 -20z m274 -46 c-21 -20 -45 -50 -54 -65 -17 -29
-33 -38 -33 -19 0 11 105 120 116 120 5 0 -8 -16 -29 -36z m-4671 -24 c6 -50
-10 -68 -38 -43 -10 9 -18 20 -18 25 0 11 42 69 47 64 2 -2 6 -23 9 -46z
m4404 -11 c0 -35 16 -38 24 -4 l6 25 38 -21 c20 -12 51 -34 67 -49 35 -33 98
-67 138 -74 33 -6 46 -19 75 -71 24 -45 53 -115 47 -115 -2 0 -41 22 -87 49
-46 27 -110 64 -143 83 -48 27 -61 40 -63 62 -2 16 -12 38 -23 49 -19 21 -19
21 -19 -16 0 -20 -3 -37 -7 -37 -5 1 -36 15 -69 33 l-62 32 14 46 c12 42 16
46 39 41 20 -3 25 -10 25 -33z m170 1 c0 -16 -4 -30 -8 -30 -5 0 -7 14 -4 30
2 17 6 30 8 30 2 0 4 -13 4 -30z m-80 -110 c0 -11 -2 -20 -4 -20 -2 0 -6 9 -9
20 -3 11 -1 20 4 20 5 0 9 -9 9 -20z m-4080 -92 c0 -7 12 -37 25 -67 14 -30
24 -59 22 -65 -2 -6 -15 14 -29 44 -34 75 -42 100 -29 100 6 0 11 -6 11 -12z
m19 -127 c7 -18 10 -35 7 -38 -8 -9 -9 -7 -39 70 -49 123 -24 99 32 -32z m-51
36 c13 -34 28 -70 33 -81 8 -14 7 -17 -2 -14 -14 5 -73 158 -61 158 4 0 17
-28 30 -63z m-16 -39 c32 -95 26 -96 -14 -1 -30 71 -33 83 -20 83 4 0 19 -37
34 -82z m-25 -13 c17 -41 27 -75 22 -75 -11 0 -23 23 -47 93 -30 83 -11 70 25
-18z m-31 -10 c9 -27 21 -55 26 -62 5 -6 5 -14 0 -17 -10 -6 -62 114 -62 142
0 26 16 -1 36 -63z m-26 -17 c14 -35 24 -64 22 -65 -10 -11 -17 -1 -38 51 -26
64 -28 76 -16 76 4 0 19 -28 32 -62z m-37 0 c8 -24 18 -51 22 -60 4 -10 3 -18
-3 -18 -9 0 -23 29 -42 93 -14 44 7 31 23 -15z m-3 -85 c0 -2 -4 -3 -9 -3 -12
0 -52 100 -45 112 5 8 54 -91 54 -109z m-41 2 c0 -13 -7 -6 -19 20 -10 22 -19
49 -19 60 0 13 7 6 19 -20 10 -22 19 -49 19 -60z m-39 29 c17 -50 5 -54 -19
-6 -11 22 -17 42 -14 45 10 11 21 -2 33 -39z m-34 -9 c9 -20 14 -38 11 -41 -5
-5 -37 52 -37 68 0 17 10 7 26 -27z m-28 -10 c16 -34 15 -40 -2 -26 -16 13
-28 51 -17 51 4 0 13 -11 19 -25z m-19 -40 c0 -5 -6 -1 -14 9 -8 11 -15 27
-15 35 1 17 29 -26 29 -44z m-39 25 c6 -11 8 -25 4 -31 -7 -12 -33 31 -27 44
6 11 11 9 23 -13z m-25 -38 c-8 -8 -25 10 -25 26 0 13 2 13 14 -4 8 -10 13
-21 11 -22z m-35 0 c0 -15 -2 -15 -10 -2 -13 20 -13 33 0 25 6 -3 10 -14 10
-23z m-26 3 c3 -8 1 -15 -4 -15 -6 0 -10 7 -10 15 0 8 2 15 4 15 2 0 6 -7 10
-15z m-24 -15 c0 -5 -2 -10 -4 -10 -3 0 -8 5 -11 10 -3 6 -1 10 4 10 6 0 11
-4 11 -10z"/>
<path d="M3350 1256 c0 -4 68 -46 76 -46 16 0 -2 20 -30 34 -34 16 -46 19 -46
12z"/>
<path d="M3508 1124 c13 -9 26 -13 30 -9 8 8 -17 25 -38 25 -9 0 -6 -6 8 -16z"/>
<path d="M3021 863 c0 -5 4 -17 9 -28 8 -18 9 -17 9 8 1 15 -3 27 -9 27 -5 0
-10 -3 -9 -7z"/>
<path d="M2845 755 c4 -22 11 -44 17 -50 7 -7 8 1 3 25 -11 53 -28 74 -20 25z"/>
<path d="M4440 8967 c0 -31 3 -57 8 -57 9 0 8 97 -1 107 -4 3 -7 -19 -7 -50z"/>
<path d="M6285 8963 c-5 -21 -9 -42 -11 -48 -1 -5 -9 -46 -18 -90 -9 -44 -23
-109 -31 -145 -8 -36 -14 -69 -14 -75 0 -21 17 22 23 55 3 19 16 85 30 145 28
128 40 195 33 195 -3 0 -8 -17 -12 -37z"/>
<path d="M4440 8847 c0 -31 3 -57 8 -57 9 0 8 97 -1 107 -4 3 -7 -19 -7 -50z"/>
<path d="M3970 8720 c0 -68 3 -121 6 -118 8 9 9 226 1 235 -4 3 -7 -49 -7
-117z"/>
<path d="M7830 8814 c0 -8 5 -12 10 -9 6 3 10 10 10 16 0 5 -4 9 -10 9 -5 0
-10 -7 -10 -16z"/>
<path d="M4440 8727 c0 -31 3 -57 8 -57 9 0 8 97 -1 107 -4 3 -7 -19 -7 -50z"/>
<path d="M8660 8680 c0 -8 5 -22 10 -30 9 -13 10 -13 10 0 0 8 -5 22 -10 30
-9 13 -10 13 -10 0z"/>
<path d="M4440 8589 c0 -40 3 -70 6 -66 9 9 10 128 2 134 -5 2 -8 -28 -8 -68z"/>
<path d="M5145 8638 c-8 -26 -11 -88 -4 -88 4 0 9 23 11 50 3 50 1 61 -7 38z"/>
<path d="M5716 8598 c-3 -13 -10 -50 -16 -83 -6 -33 -13 -70 -16 -82 -2 -13
-1 -23 4 -23 5 0 14 35 20 78 7 42 15 89 17 105 6 32 -3 37 -9 5z"/>
<path d="M5130 8515 c0 -14 2 -25 4 -25 2 0 6 11 8 25 3 14 1 25 -3 25 -5 0
-9 -11 -9 -25z"/>
<path d="M4440 8393 c0 -64 2 -114 4 -112 8 8 11 229 4 229 -5 0 -8 -52 -8
-117z"/>
<path d="M6147 8320 c-21 -94 -41 -178 -44 -187 -4 -10 -2 -14 4 -10 6 4 13
19 16 34 2 16 19 91 36 167 18 77 30 146 29 153 -2 8 -20 -63 -41 -157z"/>
<path d="M2308 8400 c2 -16 6 -30 8 -30 2 0 4 14 4 30 0 17 -4 30 -8 30 -5 0
-7 -13 -4 -30z"/>
<path d="M5308 8423 c7 -3 16 -2 19 1 4 3 -2 6 -13 5 -11 0 -14 -3 -6 -6z"/>
<path d="M5679 8394 c-1 -12 -7 -46 -19 -109 -5 -27 -11 -66 -14 -85 -3 -19
-19 -111 -36 -204 -17 -93 -29 -174 -27 -180 4 -12 18 57 52 254 14 80 32 185
41 233 9 48 14 91 10 94 -3 3 -6 2 -7 -3z"/>
<path d="M5109 8328 c-1 -51 -7 -106 -13 -130 -2 -10 0 -18 5 -18 5 0 9 15 10
33 0 17 2 43 4 57 14 82 14 100 5 100 -5 0 -11 -19 -11 -42z"/>
<path d="M564 8309 c-3 -6 -1 -16 5 -22 8 -8 11 -5 11 11 0 24 -5 28 -16 11z"/>
<path d="M4560 8306 c0 -8 5 -18 10 -21 6 -3 10 1 10 9 0 8 -4 18 -10 21 -5 3
-10 -1 -10 -9z"/>
<path d="M5532 8270 c0 -19 2 -27 5 -17 2 9 2 25 0 35 -3 9 -5 1 -5 -18z"/>
<path d="M7130 8291 c0 -5 5 -13 10 -16 6 -3 10 -2 10 4 0 5 -4 13 -10 16 -5
3 -10 2 -10 -4z"/>
<path d="M5089 8128 c0 -24 -2 -50 -3 -58 -8 -38 -17 -154 -13 -150 7 7 15 62
23 156 3 43 8 82 11 87 2 4 -1 7 -6 7 -6 0 -11 -19 -12 -42z"/>
<path d="M6540 8132 c0 -7 -7 -12 -15 -12 -8 0 -15 -4 -15 -10 0 -16 27 -11
34 6 4 9 4 19 1 22 -3 3 -5 0 -5 -6z"/>
<path d="M6026 7833 c-49 -201 -106 -467 -100 -472 5 -6 9 8 48 189 32 150 46
210 89 383 8 31 12 57 8 57 -3 0 -24 -71 -45 -157z"/>
<path d="M8640 7911 c0 -5 5 -13 10 -16 6 -3 10 -2 10 4 0 5 -4 13 -10 16 -5
3 -10 2 -10 -4z"/>
<path d="M6956 7822 c-8 -13 -46 -117 -46 -126 0 -17 8 -1 34 67 22 59 27 83
12 59z"/>
<path d="M1900 7803 c0 -6 11 -42 25 -79 14 -38 33 -88 41 -112 9 -24 18 -41
20 -39 4 4 -73 227 -81 236 -3 2 -5 0 -5 -6z"/>
<path d="M1006 7509 c41 -83 77 -149 79 -147 6 6 -138 297 -148 298 -4 0 27
-68 69 -151z"/>
<path d="M5529 7597 c-19 -10 -23 -19 -20 -42 1 -17 7 -37 11 -45 11 -21 10
-146 -1 -184 -17 -55 -22 -142 -10 -165 16 -28 56 -28 75 2 8 12 17 45 21 72
3 28 11 68 17 90 21 79 8 212 -25 253 -20 25 -43 31 -68 19z"/>
<path d="M6852 7541 c-7 -19 -10 -36 -7 -39 6 -7 26 49 22 62 -2 6 -9 -5 -15
-23z"/>
<path d="M7227 7540 c-3 -11 -2 -20 3 -20 12 0 21 28 11 35 -5 2 -11 -4 -14
-15z"/>
<path d="M6796 7383 c-21 -60 -41 -117 -46 -128 -9 -19 -49 -128 -107 -290
-13 -38 -29 -79 -33 -90 -14 -30 -171 -466 -181 -499 -16 -53 9 -13 30 49 11
33 27 78 35 100 8 22 30 83 49 135 19 52 58 160 87 240 29 80 58 159 65 175 6
17 29 77 50 135 20 58 41 114 45 125 5 11 16 42 25 69 8 26 20 57 26 67 5 11
6 19 1 19 -5 0 -26 -48 -46 -107z"/>
<path d="M2020 7475 c0 -9 45 -139 68 -195 21 -49 12 -2 -12 66 -29 83 -55
143 -56 129z"/>
<path d="M7675 7227 c-127 -259 -121 -245 -107 -232 6 6 46 82 90 170 118 239
135 275 131 280 -3 2 -54 -96 -114 -218z"/>
<path d="M2440 7424 c0 -6 19 -60 41 -120 23 -60 63 -170 89 -244 26 -74 52
-146 58 -160 6 -14 13 -34 16 -44 4 -10 9 -16 12 -14 3 3 -8 41 -25 84 -16 44
-62 169 -101 279 -70 195 -89 241 -90 219z"/>
<path d="M1140 7256 c0 -9 60 -129 172 -346 47 -91 95 -185 107 -208 12 -24
24 -42 27 -40 2 3 -17 45 -42 94 -25 49 -93 181 -151 294 -106 207 -113 219
-113 206z"/>
<path d="M5890 7239 c0 -5 5 -7 10 -4 6 3 10 8 10 11 0 2 -4 4 -10 4 -5 0 -10
-5 -10 -11z"/>
<path d="M5822 6963 c-68 -284 -113 -500 -111 -541 2 -32 1 -36 35 148 14 74
39 191 56 260 16 69 32 136 34 149 3 14 18 73 34 133 15 59 25 108 21 108 -4
0 -35 -116 -69 -257z"/>
<path d="M2145 7123 c14 -32 61 -157 105 -278 150 -411 163 -445 168 -441 2 3
-8 38 -23 78 -27 73 -47 128 -86 236 -11 31 -27 73 -34 92 -8 19 -42 110 -76
203 -34 92 -65 167 -70 167 -4 0 3 -26 16 -57z"/>
<path d="M6135 7044 c-16 -8 -37 -22 -46 -30 -8 -7 -30 -19 -47 -25 -19 -6
-40 -26 -53 -47 -12 -21 -33 -49 -46 -63 -26 -28 -32 -81 -19 -153 4 -21 9
-47 11 -57 7 -34 25 -57 49 -61 30 -6 118 22 144 45 9 8 35 18 56 21 74 12 87
19 113 58 13 22 33 42 43 45 10 3 23 17 29 31 13 34 6 159 -10 178 -6 8 -37
22 -68 30 -31 9 -65 23 -76 30 -25 18 -43 17 -80 -2z"/>
<path d="M3026 6865 c3 -16 9 -43 14 -60 4 -16 16 -65 26 -108 9 -42 19 -75
21 -73 6 6 -46 236 -58 255 -7 12 -8 8 -3 -14z"/>
<path d="M7435 6753 c-75 -146 -84 -164 -67 -148 15 15 143 267 140 276 -2 4
-34 -53 -73 -128z"/>
<path d="M1295 6850 c3 -5 14 -10 23 -10 15 0 15 2 2 10 -20 13 -33 13 -25 0z"/>
<path d="M5295 6850 c3 -5 14 -10 23 -10 15 0 15 2 2 10 -20 13 -33 13 -25 0z"/>
<path d="M7337 6563 c-237 -461 -302 -593 -292 -593 4 0 174 332 219 428 14
30 25 41 36 37 11 -5 12 -3 4 5 -8 8 -2 29 22 77 19 36 32 68 30 70 -3 3 -11
-8 -19 -24z"/>
<path d="M1566 6425 c37 -71 85 -164 107 -205 21 -41 50 -96 63 -122 13 -25
28 -49 34 -53 6 -4 -19 51 -56 122 -37 70 -93 176 -123 234 -31 58 -64 117
-74 130 -10 13 13 -34 49 -106z"/>
<path d="M6088 6475 c-3 -11 -22 -65 -43 -120 -20 -55 -40 -111 -45 -125 -4
-14 -29 -83 -54 -154 -25 -71 -44 -131 -41 -134 2 -3 7 1 10 9 2 8 29 84 59
169 30 85 70 200 90 254 20 55 35 104 33 110 -2 6 -6 2 -9 -9z"/>
<path d="M6367 6209 c-8 -19 -19 -52 -26 -74 -7 -22 -15 -47 -18 -55 -4 -8 -7
-17 -8 -20 -1 -3 -4 -12 -8 -20 -28 -68 -65 -190 -58 -190 5 0 12 12 15 28 6
21 55 164 83 242 28 73 41 115 38 118 -2 3 -10 -11 -18 -29z"/>
<path d="M2495 6170 c9 -25 18 -49 19 -55 2 -5 6 -17 9 -25 4 -8 43 -116 87
-240 128 -353 272 -744 281 -760 14 -25 10 6 -5 42 -8 18 -24 58 -35 88 -59
162 -126 345 -153 420 -16 47 -34 94 -38 105 -5 11 -15 40 -23 65 -8 25 -29
83 -47 130 -17 47 -45 123 -61 170 -16 46 -34 89 -40 95 -5 5 -2 -10 6 -35z"/>
<path d="M7958 6113 c-24 -38 -53 -81 -63 -98 -32 -51 9 -6 49 55 20 30 43 64
51 75 14 18 20 35 11 35 -1 0 -23 -30 -48 -67z"/>
<path d="M8340 6029 c0 -5 5 -7 10 -4 6 3 10 8 10 11 0 2 -4 4 -10 4 -5 0 -10
-5 -10 -11z"/>
<path d="M1826 5919 c12 -15 143 -268 300 -578 54 -106 100 -188 102 -181 3 7
1 15 -4 19 -5 3 -60 107 -122 231 -177 354 -262 515 -275 519 -9 3 -9 1 -1
-10z"/>
<path d="M7750 5800 c-33 -50 -63 -98 -66 -108 -3 -9 9 6 27 33 19 28 36 52
39 55 20 20 74 110 66 110 -3 0 -33 -41 -66 -90z"/>
<path d="M6940 5785 c-24 -47 -42 -87 -39 -89 3 -3 24 33 48 80 24 47 41 87
39 89 -2 2 -23 -34 -48 -80z"/>
<path d="M6415 5771 l-60 -62 -79 2 c-76 2 -81 0 -104 -26 -22 -26 -24 -35
-20 -102 4 -64 2 -77 -19 -108 -12 -18 -23 -41 -23 -50 0 -23 151 -252 175
-264 11 -6 52 -12 90 -13 65 -2 75 0 134 35 l63 38 112 -2 c61 0 118 2 126 5
16 7 70 102 74 132 1 9 -23 84 -55 166 -52 135 -63 156 -116 213 -63 68 -88
81 -178 91 l-60 6 -60 -61z"/>
<path d="M7880 5790 c0 -5 5 -10 10 -10 6 0 10 5 10 10 0 6 -4 10 -10 10 -5 0
-10 -4 -10 -10z"/>
<path d="M1089 5728 c16 -24 63 -95 103 -158 80 -124 107 -160 121 -160 5 0
-4 15 -20 34 -17 18 -72 99 -122 180 -51 80 -97 146 -102 146 -5 0 4 -19 20
-42z"/>
<path d="M3284 5760 c5 -14 63 -278 72 -330 18 -95 84 -334 90 -327 3 2 -3 31
-12 63 -25 93 -61 235 -69 279 -5 22 -9 45 -11 50 -1 6 -4 21 -7 35 -31 152
-49 226 -58 235 -7 7 -9 5 -5 -5z"/>
<path d="M1190 5756 c0 -2 7 -6 15 -10 8 -3 15 -1 15 4 0 6 -7 10 -15 10 -8 0
-15 -2 -15 -4z"/>
<path d="M5806 5679 c-2 -8 -21 -70 -41 -139 -32 -107 -75 -249 -91 -300 -4
-10 -2 -12 5 -5 12 13 143 446 136 453 -2 3 -7 -1 -9 -9z"/>
<path d="M9070 5643 c0 -13 5 -23 10 -23 13 0 13 11 0 30 -8 12 -10 11 -10 -7z"/>
<path d="M2363 5598 c3 -7 24 -60 47 -118 23 -58 48 -119 56 -137 8 -17 14
-34 14 -38 0 -4 6 -21 14 -38 8 -18 31 -75 51 -127 20 -52 41 -99 46 -105 12
-12 19 -32 -99 270 -108 275 -120 305 -128 305 -3 0 -4 -6 -1 -12z"/>
<path d="M7400 5570 c6 -11 16 -20 22 -20 6 0 3 9 -7 20 -10 11 -20 20 -22 20
-2 0 1 -9 7 -20z"/>
<path d="M7525 5462 c-38 -59 -73 -111 -78 -117 -4 -5 -37 -55 -73 -110 -36
-55 -70 -107 -77 -115 -30 -39 -128 -192 -124 -196 2 -2 89 123 193 278 233
349 245 368 236 368 -4 0 -38 -49 -77 -108z"/>
<path d="M942 5515 c0 -16 2 -22 5 -12 2 9 2 23 0 30 -3 6 -5 -1 -5 -18z"/>
<path d="M2951 5514 c-30 -21 -26 -48 12 -79 68 -55 88 -81 128 -164 65 -133
110 -170 144 -117 17 26 14 41 -23 101 -14 22 -25 41 -24 42 7 10 -54 116 -85
149 -68 73 -115 93 -152 68z"/>
<path d="M8041 5434 c1 -21 16 -47 21 -38 4 5 0 18 -8 29 -8 10 -14 15 -13 9z"/>
<path d="M460 5394 c0 -15 121 -157 128 -150 2 3 -6 15 -18 28 -12 13 -40 47
-62 76 -39 50 -48 59 -48 46z"/>
<path d="M1980 5330 c0 -5 5 -10 11 -10 5 0 7 5 4 10 -3 6 -8 10 -11 10 -2 0
-4 -4 -4 -10z"/>
<path d="M5970 5330 c0 -5 7 -7 15 -4 8 4 15 8 15 10 0 2 -7 4 -15 4 -8 0 -15
-4 -15 -10z"/>
<path d="M6040 5299 c0 -2 -16 -49 -35 -103 -35 -99 -46 -149 -21 -90 26 58
66 187 61 192 -3 3 -5 3 -5 1z"/>
<path d="M1432 5225 c73 -99 265 -377 488 -707 73 -109 137 -198 142 -198 4 0
-14 31 -42 69 -27 38 -50 71 -50 74 0 3 -35 57 -78 119 -43 62 -168 242 -277
401 -109 158 -202 287 -207 287 -5 0 6 -20 24 -45z"/>
<path d="M650 5166 c0 -3 16 -22 36 -43 20 -21 64 -69 98 -107 33 -38 72 -81
86 -95 41 -42 229 -260 243 -282 6 -10 16 -19 21 -19 7 0 -35 63 -53 80 -4 3
-33 37 -66 75 -33 39 -64 75 -70 81 -5 6 -44 48 -85 94 -41 45 -101 110 -132
144 -32 34 -58 64 -58 69 0 7 -20 10 -20 3z"/>
<path d="M6537 4984 c-33 -63 -57 -117 -55 -119 2 -2 31 50 65 115 34 66 59
120 55 120 -4 0 -33 -52 -65 -116z"/>
<path d="M2276 5051 c3 -14 19 -47 35 -75 16 -28 46 -83 66 -123 21 -40 39
-70 41 -68 5 5 -27 69 -102 205 -26 47 -44 74 -40 61z"/>
<path d="M6822 4978 c-16 -29 -44 -80 -62 -113 -18 -33 -50 -89 -70 -125 -21
-36 -54 -96 -74 -135 -30 -57 -32 -65 -11 -40 14 17 25 34 25 38 0 5 49 95
108 200 60 106 111 200 115 210 12 33 -2 17 -31 -35z"/>
<path d="M2790 4982 c-39 -6 -55 -26 -96 -125 -39 -96 -52 -112 -95 -122 -41
-9 -63 -40 -62 -86 3 -57 23 -94 53 -95 14 -1 35 -2 47 -3 28 -1 41 -25 48
-91 11 -92 19 -98 158 -114 67 -9 65 -10 182 142 68 89 72 92 140 114 97 32
105 50 74 166 -13 47 -30 93 -39 102 -9 9 -70 38 -136 65 -118 48 -187 60
-274 47z"/>
<path d="M3465 4980 c3 -5 33 -130 66 -277 70 -313 62 -276 89 -383 22 -84 46
-146 34 -85 -3 17 -9 41 -14 55 -10 31 -41 163 -40 170 1 3 -3 18 -9 33 -6 15
-13 40 -16 55 -7 40 -12 60 -29 133 -8 37 -17 79 -20 94 -17 91 -50 215 -58
215 -5 0 -6 -4 -3 -10z"/>
<path d="M5926 4972 c-7 -12 -86 -234 -86 -241 1 -15 24 37 59 138 35 99 43
128 27 103z"/>
<path d="M6875 4487 c-121 -183 -224 -336 -228 -342 -4 -5 -50 -73 -101 -150
-50 -77 -107 -162 -125 -188 -18 -27 -31 -50 -28 -53 3 -3 91 125 196 283 105
158 195 295 201 303 6 8 60 89 120 180 60 91 113 170 117 175 4 6 21 30 38 55
16 25 33 51 38 58 5 6 6 12 1 12 -5 0 -108 -150 -229 -333z"/>
<path d="M6086 4799 c-71 -17 -135 -74 -136 -121 0 -54 44 -54 101 -1 15 14
46 29 70 34 47 11 59 22 59 57 0 15 -8 26 -26 32 -14 6 -26 10 -27 9 -1 -1
-19 -5 -41 -10z"/>
<path d="M6393 4703 c-213 -417 -374 -745 -369 -750 2 -3 65 117 139 267 74
149 138 265 141 258 3 -7 4 -4 3 7 -2 18 99 230 125 263 7 8 7 12 1 12 -6 0
-24 -26 -40 -57z"/>
<path d="M2219 4613 c27 -47 135 -237 203 -358 123 -223 154 -275 160 -275 4
0 -4 20 -17 45 -14 25 -37 66 -51 93 -14 26 -30 52 -34 57 -5 6 -22 35 -38 65
-16 30 -39 73 -52 95 -59 103 -80 144 -80 159 0 9 -4 16 -9 16 -5 0 -29 34
-52 75 -24 41 -47 75 -51 75 -4 0 5 -21 21 -47z"/>
<path d="M7676 4641 c-4 -7 -5 -15 -2 -18 9 -9 19 4 14 18 -4 11 -6 11 -12 0z"/>
<path d="M7720 4589 c-24 -28 -50 -58 -58 -65 -7 -8 -9 -14 -4 -14 5 0 21 15
37 33 15 17 39 44 53 59 14 15 23 30 21 33 -3 3 -25 -18 -49 -46z"/>
<path d="M1209 4535 c6 -11 25 -36 43 -56 18 -20 56 -62 85 -95 28 -32 62 -70
75 -85 12 -14 46 -51 73 -83 28 -32 57 -66 65 -76 78 -89 101 -112 105 -109 2
3 -6 16 -18 30 -21 23 -128 145 -192 218 -16 19 -39 44 -50 56 -11 13 -45 51
-75 86 -84 97 -122 136 -111 114z"/>
<path d="M8510 4543 c0 -5 5 -15 10 -23 8 -12 10 -11 10 8 0 12 -4 22 -10 22
-5 0 -10 -3 -10 -7z"/>
<path d="M3120 4467 c0 -10 30 -98 44 -132 7 -16 22 -54 32 -82 10 -29 21 -53
25 -53 5 0 -1 21 -11 48 -10 26 -33 85 -50 132 -30 80 -40 102 -40 87z"/>
<path d="M9130 4454 c0 -17 17 -36 24 -26 3 5 -1 15 -9 22 -8 7 -15 9 -15 4z"/>
<path d="M745 4440 c4 -6 11 -8 16 -5 14 9 11 15 -7 15 -8 0 -12 -5 -9 -10z"/>
<path d="M7514 4354 c-27 -31 -58 -66 -69 -78 -56 -59 -116 -136 -106 -136 6
0 11 3 11 8 0 4 20 28 43 53 73 80 162 181 170 195 16 28 -1 13 -49 -42z"/>
<path d="M6351 4157 c-58 -116 -107 -215 -109 -219 -2 -5 -1 -8 2 -8 3 0 55
99 116 220 60 121 107 220 103 220 -5 0 -55 -96 -112 -213z"/>
<path d="M2265 4340 c3 -5 8 -10 11 -10 2 0 4 5 4 10 0 6 -5 10 -11 10 -5 0
-7 -4 -4 -10z"/>
<path d="M6265 4340 c3 -5 8 -10 11 -10 2 0 4 5 4 10 0 6 -5 10 -11 10 -5 0
-7 -4 -4 -10z"/>
<path d="M7005 4208 c-234 -316 -303 -409 -321 -433 -10 -15 -24 -32 -29 -39
-6 -6 -26 -33 -45 -61 -19 -27 -37 -52 -40 -55 -24 -22 -99 -134 -94 -139 4
-3 9 -1 11 5 2 6 94 132 204 280 111 148 208 279 217 292 10 13 54 73 100 134
46 60 81 112 79 115 -3 2 -39 -42 -82 -99z"/>
<path d="M2748 4129 c32 -63 85 -165 117 -227 32 -62 60 -111 62 -108 2 2 -33
77 -79 165 -46 89 -95 186 -110 215 -15 30 -32 57 -38 61 -6 4 15 -44 48 -106z"/>
<path d="M2130 4217 c0 -4 33 -55 73 -114 39 -58 81 -120 92 -138 23 -37 179
-261 279 -403 38 -53 66 -89 63 -79 -4 10 -67 104 -140 210 -73 106 -182 264
-242 352 -112 166 -125 184 -125 172z"/>
<path d="M3062 4121 c-10 -6 -10 -10 3 -21 13 -11 15 -9 15 9 0 24 0 24 -18
12z"/>
<path d="M7050 4111 c0 -5 7 -11 15 -15 9 -3 15 0 15 9 0 8 -7 15 -15 15 -8 0
-15 -4 -15 -9z"/>
<path d="M3250 4109 c0 -4 18 -58 41 -120 22 -63 48 -133 56 -156 8 -24 19
-45 24 -48 8 -6 -12 60 -31 100 -5 11 -23 60 -40 109 -28 81 -49 130 -50 115z"/>
<path d="M7164 3953 c-27 -32 -67 -78 -89 -103 -22 -25 -65 -75 -95 -109 -83
-96 -88 -102 -140 -161 -27 -30 -58 -66 -70 -80 -46 -53 -137 -155 -172 -194
-21 -23 -38 -45 -38 -50 0 -10 48 41 193 208 10 12 44 50 75 85 65 73 70 78
134 152 67 78 84 98 131 153 23 27 57 65 75 85 32 35 57 71 49 71 -2 0 -26
-26 -53 -57z"/>
<path d="M2096 3952 c-3 -6 -1 -14 5 -17 14 -9 20 -2 10 14 -6 8 -11 9 -15 3z"/>
<path d="M3646 3923 c-6 -14 -5 -15 5 -6 7 7 10 15 7 18 -3 3 -9 -2 -12 -12z"/>
<path d="M7647 3933 c-4 -3 -7 -11 -7 -17 0 -6 5 -5 12 2 6 6 9 14 7 17 -3 3
-9 2 -12 -2z"/>
<path d="M1750 3923 c0 -6 69 -89 153 -185 83 -96 177 -203 207 -238 30 -35
66 -75 79 -89 12 -14 39 -46 60 -70 76 -92 104 -121 115 -121 7 0 8 3 1 8 -6
4 -69 75 -140 157 -71 83 -131 152 -134 155 -4 3 -21 23 -40 45 -82 96 -137
160 -156 179 -11 12 -45 50 -75 86 -29 36 -57 69 -62 75 -5 5 -8 5 -8 -2z"/>
<path d="M7819 3877 c-20 -18 -69 -61 -109 -97 -114 -101 -123 -110 -119 -114
2 -3 22 12 45 32 57 52 174 156 203 181 13 12 22 23 20 26 -3 2 -21 -10 -40
-28z"/>
<path d="M1071 3790 c30 -27 59 -49 64 -49 6 0 -15 22 -45 49 -30 28 -59 50
-64 50 -5 0 15 -22 45 -50z"/>
<path d="M5529 3768 c4 -28 6 -29 9 -9 2 13 0 27 -5 32 -6 6 -7 -3 -4 -23z"/>
<path d="M1308 3783 c7 -3 16 -2 19 1 4 3 -2 6 -13 5 -11 0 -14 -3 -6 -6z"/>
<path d="M1528 3765 c2 -14 6 -25 8 -25 2 0 4 11 4 25 0 14 -4 25 -9 25 -4 0
-6 -11 -3 -25z"/>
<path d="M5308 3783 c7 -3 16 -2 19 1 4 3 -2 6 -13 5 -11 0 -14 -3 -6 -6z"/>
<path d="M5490 3779 c0 -6 -25 -79 -56 -163 -30 -83 -57 -158 -59 -166 -2 -8
-13 -39 -24 -69 -12 -29 -19 -56 -17 -59 6 -5 9 3 54 128 16 47 50 142 75 213
26 70 42 127 37 127 -6 0 -10 -5 -10 -11z"/>
<path d="M8438 3772 c-10 -2 -18 -8 -18 -13 0 -13 27 -11 35 2 9 13 4 16 -17
11z"/>
<path d="M1606 3658 c16 -18 31 -35 34 -38 3 -3 32 -36 65 -75 33 -38 70 -81
83 -95 13 -14 39 -46 60 -72 20 -27 40 -48 46 -48 5 0 2 8 -6 18 -8 9 -26 30
-39 46 -13 16 -28 34 -34 40 -5 6 -35 40 -65 76 -30 36 -59 70 -65 76 -5 6
-28 32 -49 57 -22 26 -44 47 -49 47 -6 0 2 -15 19 -32z"/>
<path d="M560 3673 c0 -5 5 -15 10 -23 8 -12 10 -11 10 8 0 12 -4 22 -10 22
-5 0 -10 -3 -10 -7z"/>
<path d="M1251 3637 c25 -23 71 -64 103 -92 32 -27 68 -58 80 -68 20 -18 82
-71 164 -142 19 -16 45 -39 56 -50 12 -11 32 -29 45 -40 l24 -20 -12 23 c-6
12 -15 22 -19 22 -4 0 -27 19 -52 41 -84 76 -105 94 -170 149 -36 30 -70 60
-76 65 -9 8 -70 62 -157 138 -41 36 -30 15 14 -26z"/>
<path d="M3130 3650 c0 -6 7 -10 15 -10 8 0 15 2 15 4 0 2 -7 6 -15 10 -8 3
-15 1 -15 -4z"/>
<path d="M7130 3650 c0 -5 5 -10 10 -10 6 0 10 5 10 10 0 6 -4 10 -10 10 -5 0
-10 -4 -10 -10z"/>
<path d="M6258 3562 c-31 -47 -55 -89 -52 -92 3 -2 10 3 15 12 5 10 30 48 55
84 24 37 43 71 42 75 -2 4 -29 -31 -60 -79z"/>
<path d="M7414 3518 c-38 -34 -74 -66 -80 -72 -6 -6 -39 -36 -73 -66 -66 -58
-87 -76 -168 -150 -27 -25 -62 -56 -79 -70 -40 -34 -56 -61 -19 -31 17 12 70
59 120 104 49 45 109 100 134 122 25 22 51 45 57 50 14 12 140 124 167 148 11
9 18 19 15 22 -2 2 -35 -23 -74 -57z"/>
<path d="M5755 3442 c-49 -95 -57 -114 -47 -108 12 7 96 175 91 181 -3 2 -23
-30 -44 -73z"/>
<path d="M3152 3344 c28 -52 52 -93 54 -91 6 6 -87 187 -96 187 -4 0 15 -43
42 -96z"/>
<path d="M3509 3394 c5 -16 25 -74 46 -129 20 -55 46 -125 57 -155 11 -30 25
-67 30 -83 6 -15 15 -30 19 -33 5 -3 -2 25 -16 63 -15 37 -49 131 -77 208 -46
126 -81 204 -59 129z"/>
<path d="M8640 3271 c0 -5 5 -13 10 -16 6 -3 10 -2 10 4 0 5 -4 13 -10 16 -5
3 -10 2 -10 -4z"/>
<path d="M5643 3218 c-26 -42 -273 -542 -272 -551 0 -7 29 44 63 113 35 69 96
190 137 270 40 80 77 153 81 163 8 20 3 23 -9 5z"/>
<path d="M52 3170 c7 -10 14 -18 15 -16 6 6 -9 36 -18 36 -5 0 -4 -9 3 -20z"/>
<path d="M3370 2931 c0 -7 24 -59 54 -115 29 -55 61 -116 71 -134 9 -19 19
-32 21 -29 3 2 -29 69 -70 148 -42 79 -76 138 -76 130z"/>
<path d="M8480 2886 c0 -9 5 -16 10 -16 6 0 10 4 10 9 0 6 -4 13 -10 16 -5 3
-10 -1 -10 -9z"/>
<path d="M7937 2836 c-3 -8 -2 -18 3 -21 13 -8 20 9 11 24 -6 10 -10 9 -14 -3z"/>
<path d="M1030 2793 c0 -5 7 -18 15 -29 13 -18 14 -18 8 4 -5 22 -23 41 -23
25z"/>
<path d="M3404 2366 c9 -26 150 -235 155 -230 2 2 -33 59 -79 126 -45 68 -80
114 -76 104z"/>
<path d="M1300 2210 c0 -5 7 -10 16 -10 8 0 12 5 9 10 -3 6 -10 10 -16 10 -5
0 -9 -4 -9 -10z"/>
<path d="M7215 1290 c-3 -5 -1 -10 4 -10 6 0 11 5 11 10 0 6 -2 10 -4 10 -3 0
-8 -4 -11 -10z"/>
<path d="M1198 1113 c6 -2 18 -2 25 0 6 3 1 5 -13 5 -14 0 -19 -2 -12 -5z"/>
<path d="M937 885 c-4 -8 -2 -17 3 -20 6 -4 10 3 10 14 0 25 -6 27 -13 6z"/>
</g>
</svg>
